<?xml version="1.0" encoding="UTF-8"?>
<!DOCTYPE svg PUBLIC "-//W3C//DTD SVG 1.1//EN" "http://www.w3.org/Graphics/SVG/1.1/DTD/svg11.dtd">
<svg xmlns="http://www.w3.org/2000/svg" version="1.1" width="800px" height="200px" style="shape-rendering:geometricPrecision; text-rendering:geometricPrecision; image-rendering:optimizeQuality; fill-rule:evenodd; clip-rule:evenodd" xmlns:xlink="http://www.w3.org/1999/xlink">
<g><path style="opacity:1" fill="#5c5856" d="M -0.5,-0.5 C 266.167,-0.5 532.833,-0.5 799.5,-0.5C 799.5,66.1667 799.5,132.833 799.5,199.5C 532.833,199.5 266.167,199.5 -0.5,199.5C -0.5,132.833 -0.5,66.1667 -0.5,-0.5 Z"/></g>
<g><path style="opacity:1" fill="#65615f" d="M 778.5,10.5 C 783.993,9.17798 786.493,11.178 786,16.5C 785.617,17.056 785.117,17.3893 784.5,17.5C 782.316,15.4152 779.649,14.4152 776.5,14.5C 776.631,13.7611 776.464,13.0944 776,12.5C 774.855,13.6364 773.688,14.6364 772.5,15.5C 768.978,19.1217 765.644,18.7884 762.5,14.5C 767.865,9.62275 773.532,9.28942 779.5,13.5C 779.833,13.3333 780.167,13.1667 780.5,13C 779.619,12.2917 778.953,11.4584 778.5,10.5 Z"/></g>
<g><path style="opacity:1" fill="#cbcac9" d="M 778.5,10.5 C 778.953,11.4584 779.619,12.2917 780.5,13C 780.167,13.1667 779.833,13.3333 779.5,13.5C 773.532,9.28942 767.865,9.62275 762.5,14.5C 766.424,8.27941 771.758,6.94608 778.5,10.5 Z"/></g>
<g><path style="opacity:1" fill="#545454" d="M 499.5,4.5 C 500.441,7.12509 501.607,7.12509 503,4.5C 503.333,5.16667 503.667,5.83333 504,6.5C 505.84,5.16686 506.34,5.33353 505.5,7C 508.167,7.66667 508.167,8.33333 505.5,9C 508.167,9.66667 508.167,10.3333 505.5,11C 505.833,11.3333 506.167,11.6667 506.5,12C 503.846,13.4075 501.179,13.9075 498.5,13.5C 492.589,24.7191 493.423,25.7191 501,16.5C 500.52,20.4525 498.686,23.7858 495.5,26.5C 496.325,27.3857 497.325,27.719 498.5,27.5C 499.044,25.4205 499.878,23.4205 501,21.5C 501.333,22.1667 501.667,22.8333 502,23.5C 502.333,22.1667 502.667,20.8333 503,19.5C 504.666,20.3402 504.833,19.8402 503.5,18C 504.646,17.3551 505.646,16.5217 506.5,15.5C 509.465,17.627 509.131,18.7937 505.5,19C 505.64,20.5971 505.64,22.0971 505.5,23.5C 504.5,24.1667 503.5,24.8333 502.5,25.5C 502.938,26.5063 503.604,26.5063 504.5,25.5C 505.83,27.3469 505.497,28.8469 503.5,30C 505.076,30.4396 506.41,31.273 507.5,32.5C 507.296,31.4706 507.796,30.4706 509,29.5C 509.308,30.3081 509.808,30.9747 510.5,31.5C 511.333,30.5 512.167,29.5 513,28.5C 516.586,30.9199 516.253,32.5866 512,33.5C 511.228,33.3552 510.561,33.0219 510,32.5C 509.612,33.428 508.945,34.0946 508,34.5C 506.105,32.8179 503.938,32.3179 501.5,33C 503.074,33.3357 504.408,34.1691 505.5,35.5C 504.284,36.0959 502.951,36.2626 501.5,36C 502.833,36.6667 502.833,37.3333 501.5,38C 502.672,38.3534 503.838,38.1868 505,37.5C 506.257,37.8499 506.591,38.5165 506,39.5C 500.476,43.6979 494.976,47.8645 489.5,52C 489.626,53.9743 489.792,56.141 490,58.5C 491.841,54.8168 494.174,51.4835 497,48.5C 495.902,59.125 492.402,68.9583 486.5,78C 491.168,76.5117 495.835,74.6784 500.5,72.5C 499.798,63.3249 500.965,54.3249 504,45.5C 506.261,41.0705 509.428,37.4039 513.5,34.5C 511.307,46.2408 507.973,57.9075 503.5,69.5C 507.59,69.2488 511.59,67.9155 515.5,65.5C 516.566,51.47 520.733,38.47 528,26.5C 530,24.5 532,22.5 534,20.5C 530.738,35.4461 525.572,49.7795 518.5,63.5C 523.405,62.4252 528.405,60.5919 533.5,58C 535.914,43.4226 541.08,29.9226 549,17.5C 551.016,15.316 553.183,13.316 555.5,11.5C 554.955,28.4383 548.955,43.2716 537.5,56C 542.733,54.647 547.9,52.8137 553,50.5C 555.273,36.9467 561.44,25.6133 571.5,16.5C 569.862,28.9447 564.529,39.7781 555.5,49C 560.583,48.3113 565.583,46.978 570.5,45C 572.835,35.4994 576.668,26.6661 582,18.5C 590.293,9.72102 592.293,11.0544 588,22.5C 584.618,30.1043 580.118,36.9376 574.5,43C 578.572,42.818 582.572,41.9846 586.5,40.5C 589.553,29.9446 596.053,22.2779 606,17.5C 606.315,18.9078 605.982,20.2411 605,21.5C 600.577,27.9275 595.41,33.7608 589.5,39C 596.406,40.5242 600.906,38.0242 603,31.5C 605.79,27.666 609.29,25.166 613.5,24C 610.55,28.6185 607.216,32.9518 603.5,37C 603.833,37.3333 604.167,37.6667 604.5,38C 601.833,38.6667 599.167,39.3333 596.5,40C 602.478,41.549 608.145,43.8823 613.5,47C 605.759,47.3648 598.759,45.1982 592.5,40.5C 589.71,41.1965 587.043,42.1965 584.5,43.5C 592.627,46.1531 600.46,49.4865 608,53.5C 613.658,51.1018 618.658,52.4352 623,57.5C 625.641,52.3593 629.474,48.3593 634.5,45.5C 636.05,47.4279 637.717,49.2613 639.5,51C 638.078,56.3552 638.744,56.6885 641.5,52C 643.905,51.7188 643.905,52.3854 641.5,54C 642.167,54.3333 642.833,54.6667 643.5,55C 642.347,56.883 640.681,57.7163 638.5,57.5C 638.822,59.7224 638.155,61.5557 636.5,63C 643.935,61.0653 650.268,62.8987 655.5,68.5C 652.857,72.6412 649.19,75.4745 644.5,77C 648.446,81.0023 650.112,85.8356 649.5,91.5C 643.474,92.3243 638.307,90.6576 634,86.5C 632.757,91.4121 630.257,95.5788 626.5,99C 625.241,99.9819 623.908,100.315 622.5,100C 618.261,94.336 617.594,88.336 620.5,82C 612.438,84.596 605.438,82.7627 599.5,76.5C 602.869,71.6481 607.535,69.1481 613.5,69C 611.844,67.1706 609.844,65.8372 607.5,65C 608.578,64.3261 609.245,63.3261 609.5,62C 608.923,59.863 608.59,57.6963 608.5,55.5C 597.741,55.7032 588.908,51.7032 582,43.5C 577.527,44.9909 573.027,46.4909 568.5,48C 580.466,52.1492 591.799,57.6492 602.5,64.5C 600.997,65.557 599.33,66.2237 597.5,66.5C 584.859,63.6814 573.692,58.0147 564,49.5C 559.011,51.2158 554.178,53.2158 549.5,55.5C 564.192,59.5151 577.859,65.6817 590.5,74C 582.883,74.3967 575.549,73.0633 568.5,70C 560.014,66.2599 552.014,61.7599 544.5,56.5C 539.742,58.3076 535.075,60.3076 530.5,62.5C 545.076,65.7895 558.742,71.2895 571.5,79C 574.797,81.2954 577.797,83.962 580.5,87C 568.135,86.3253 556.468,82.9919 545.5,77C 538.677,72.9948 532.01,68.8281 525.5,64.5C 520.576,65.9637 515.909,67.9637 511.5,70.5C 525.715,76.2744 539.382,83.1077 552.5,91C 544.779,91.9043 537.446,90.5709 530.5,87C 522.601,82.558 515.268,77.3913 508.5,71.5C 503.688,73.4069 499.021,75.5736 494.5,78C 505.898,82.5323 516.898,87.8657 527.5,94C 517.293,95.6058 507.96,93.2724 499.5,87C 496.911,83.9031 493.911,81.4031 490.5,79.5C 486.172,81.3304 481.838,83.1637 477.5,85C 485.664,87.4154 493.331,90.9154 500.5,95.5C 501.478,95.0233 502.311,94.3567 503,93.5C 506.058,94.7631 509.225,95.7631 512.5,96.5C 511.211,99.5802 509.545,102.414 507.5,105C 508.5,105.333 509.5,105.667 510.5,106C 508.075,106.293 506.242,107.459 505,109.5C 502.232,113.467 500.898,117.8 501,122.5C 506.593,114.58 511.76,106.413 516.5,98C 521.439,97.5306 526.106,98.5306 530.5,101C 525.029,108.771 519.196,116.271 513,123.5C 511.483,126.343 509.983,129.177 508.5,132C 508.63,133.059 509.13,133.892 510,134.5C 512.48,130.072 515.147,125.738 518,121.5C 524.389,115.466 530.056,109.466 535,103.5C 538.132,104.993 541.299,106.493 544.5,108C 546.628,111.13 549.128,113.963 552,116.5C 554.006,119.536 554.84,122.869 554.5,126.5C 556.924,126.192 559.257,126.526 561.5,127.5C 559.007,129.58 556.341,131.414 553.5,133C 552.289,133.893 552.289,134.726 553.5,135.5C 556.756,133.289 559.922,130.955 563,128.5C 566.086,131.755 568.586,135.422 570.5,139.5C 548.775,147.551 549.441,149.551 572.5,145.5C 573.641,147.421 573.808,149.421 573,151.5C 564.578,152.318 556.078,152.818 547.5,153C 547.833,153.333 548.167,153.667 548.5,154C 557.702,154.793 566.869,154.626 576,153.5C 577.285,153.95 578.452,154.617 579.5,155.5C 582.311,147.472 586.644,146.472 592.5,152.5C 594.071,151.691 595.738,151.357 597.5,151.5C 597.394,144.381 599.56,138.048 604,132.5C 604.72,130.888 604.554,129.388 603.5,128C 605.503,128.419 607.503,129.253 609.5,130.5C 614.96,127.936 620.294,125.103 625.5,122C 633.664,120.55 641.331,121.883 648.5,126C 642.67,130.915 636.004,134.248 628.5,136C 629.167,136.667 629.833,137.333 630.5,138C 634.768,138.534 638.768,139.867 642.5,142C 647.667,146.5 652.833,151 658,155.5C 658.333,154.5 658.667,153.5 659,152.5C 659.554,156.283 661.554,158.95 665,160.5C 665.914,156.815 666.581,157.148 667,161.5C 667.221,158.057 668.221,157.724 670,160.5C 671.682,159.135 671.849,157.635 670.5,156C 671.944,155.219 673.277,155.386 674.5,156.5C 671.584,159.137 671.917,161.303 675.5,163C 674.692,163.308 674.025,163.808 673.5,164.5C 676.441,165.522 679.441,166.355 682.5,167C 681.5,167.333 680.5,167.667 679.5,168C 681.329,169.113 682.163,170.613 682,172.5C 679.407,169.457 676.24,167.29 672.5,166C 671.531,162.925 669.531,161.925 666.5,163C 665.269,164.183 665.269,165.349 666.5,166.5C 667.167,165.5 667.833,164.5 668.5,163.5C 669.641,165.808 671.308,167.641 673.5,169C 672.24,170.113 671.073,170.28 670,169.5C 669.667,170.167 669.333,170.833 669,171.5C 668.68,174.54 668.68,177.54 669,180.5C 667.895,177.583 666.895,174.583 666,171.5C 665.667,171.833 665.333,172.167 665,172.5C 664.163,170.993 662.996,170.493 661.5,171C 655.392,174.324 654.059,178.99 657.5,185C 656.638,187.734 655.805,187.901 655,185.5C 654.189,186.96 653.355,187.293 652.5,186.5C 654.117,184.368 654.617,182.035 654,179.5C 652.927,180.28 651.76,180.113 650.5,179C 652.455,178.047 654.122,176.713 655.5,175C 654.692,174.692 654.025,174.192 653.5,173.5C 656.824,172.172 659.824,170.339 662.5,168C 661.833,167.667 661.167,167.333 660.5,167C 664.5,166 664.5,165 660.5,164C 661.938,163.781 663.271,163.281 664.5,162.5C 661.517,159.834 658.184,158.834 654.5,159.5C 649.749,158.479 645.082,157.145 640.5,155.5C 640.5,156.5 640.5,157.5 640.5,158.5C 633.596,156.926 627.429,153.926 622,149.5C 618.394,143.293 614.061,137.627 609,132.5C 609.218,135.179 609.885,137.845 611,140.5C 611.667,143.5 611.667,146.5 611,149.5C 609.441,154.283 607.607,158.95 605.5,163.5C 607.617,168.433 606.617,172.433 602.5,175.5C 603.662,182 600.995,184.333 594.5,182.5C 593.289,184.422 591.956,186.255 590.5,188C 588.167,188.667 585.833,188.667 583.5,188C 582.929,186.795 582.262,185.628 581.5,184.5C 576.702,186.782 573.702,185.449 572.5,180.5C 572.848,178.303 573.848,176.47 575.5,175C 569.77,174.837 566.77,172.003 566.5,166.5C 554.981,164.954 543.648,162.454 532.5,159C 522.44,158.322 522.107,160.322 531.5,165C 540.823,167.454 549.99,170.287 559,173.5C 559.09,175.768 557.923,177.268 555.5,178C 551.983,179.734 548.316,180.401 544.5,180C 539.546,176.715 534.88,173.048 530.5,169C 519.072,162.34 518.072,163.34 527.5,172C 531.5,174.667 535.5,177.333 539.5,180C 536.697,180.755 534.03,180.422 531.5,179C 524.573,173.577 517.24,168.744 509.5,164.5C 508.479,165.002 508.312,165.668 509,166.5C 514.759,172.262 521.092,177.262 528,181.5C 528.591,182.483 528.257,183.15 527,183.5C 520.637,186.628 514.971,185.628 510,180.5C 504.083,171.669 498.417,162.669 493,153.5C 494.633,163.568 497.8,173.234 502.5,182.5C 498.812,183.62 495.146,183.453 491.5,182C 489.333,181.167 487.833,179.667 487,177.5C 485.188,167.923 484.021,158.257 483.5,148.5C 480.813,157.281 478.979,166.281 478,175.5C 474.232,172.109 471.065,168.276 468.5,164C 470.833,158.333 473.167,152.667 475.5,147C 475.167,146.5 474.833,146 474.5,145.5C 469.302,149.197 463.969,152.697 458.5,156C 455.524,156.757 453.691,155.591 453,152.5C 452.022,149.331 452.522,146.497 454.5,144C 463.423,140.47 472.423,137.137 481.5,134C 475.5,133.667 469.5,133.333 463.5,133C 459.27,129.718 454.603,127.218 449.5,125.5C 450.818,122.35 452.984,120.017 456,118.5C 460.382,123.607 465.882,126.441 472.5,127C 469.325,120.976 465.659,115.31 461.5,110C 463.081,105.67 465.748,102.17 469.5,99.5C 479.554,128.328 483.554,127.328 481.5,96.5C 483.333,95.9479 485,95.1145 486.5,94C 482.656,91.4847 478.823,88.9847 475,86.5C 471.651,88.4402 468.151,89.6069 464.5,90C 470.833,86.8333 477.167,83.6667 483.5,80.5C 485.965,73.3433 486.799,66.01 486,58.5C 485.529,60.2464 484.862,61.913 484,63.5C 483.075,62.9535 482.242,62.2868 481.5,61.5C 483.239,57.2829 484.573,52.9496 485.5,48.5C 484.624,47.7492 483.624,47.2492 482.5,47C 476.186,46.1533 469.853,45.4866 463.5,45C 467.78,42.3503 472.447,40.6836 477.5,40C 478.167,39.3333 478.833,38.6667 479.5,38C 478.692,35.9124 477.692,33.9124 476.5,32C 480.207,31.1865 482.54,32.6865 483.5,36.5C 484.42,33.4179 483.586,30.7512 481,28.5C 480.667,28.8333 480.333,29.1667 480,29.5C 478.601,28.7734 477.101,28.2734 475.5,28C 474.184,26.0224 474.684,24.5224 477,23.5C 478.353,24.6853 479.52,26.0186 480.5,27.5C 481.506,27.0623 481.506,26.3957 480.5,25.5C 481.189,23.556 481.689,21.556 482,19.5C 483.716,18.4477 484.716,19.1144 485,21.5C 485.333,18.8333 485.667,16.1667 486,13.5C 489.104,18.0364 490.77,23.0364 491,28.5C 492.307,22.0188 494.807,16.0188 498.5,10.5C 497.05,9.15017 496.383,7.4835 496.5,5.5C 497.791,5.73731 498.791,5.40397 499.5,4.5 Z"/></g>
<g><path style="opacity:1" fill="#cfcecd" d="M 762.5,14.5 C 765.644,18.7884 768.978,19.1217 772.5,15.5C 772.461,16.5832 772.127,17.5832 771.5,18.5C 772.376,19.2508 773.376,19.7508 774.5,20C 770.936,20.7275 770.602,22.2275 773.5,24.5C 772.199,26.8662 770.366,28.8662 768,30.5C 764.089,28.687 763.589,26.187 766.5,23C 770.245,23.0354 770.912,22.0354 768.5,20C 764.059,17.2277 759.392,14.8944 754.5,13C 750.793,12.0037 747.459,12.6704 744.5,15C 745.844,16.5534 747.177,17.0534 748.5,16.5C 750.481,17.1054 750.815,18.1054 749.5,19.5C 743.579,15.0409 736.913,12.5409 729.5,12C 734.399,10.8753 738.899,11.7086 743,14.5C 746.542,10.7724 750.709,9.77242 755.5,11.5C 756.833,10.1667 758.167,8.83333 759.5,7.5C 763.378,9.4008 763.378,11.2341 759.5,13C 760.244,14.0386 761.244,14.5386 762.5,14.5 Z"/></g>
<g><path style="opacity:1" fill="#666361" d="M 50.5,12.5 C 50.9731,13.9063 51.9731,14.573 53.5,14.5C 50.5934,18.7687 48.2601,18.4354 46.5,13.5C 45.5481,15.0453 45.2148,16.712 45.5,18.5C 43.3453,18.628 41.3453,18.128 39.5,17C 38.5494,16.2825 38.3828,15.4491 39,14.5C 42.6203,12.8166 46.4537,12.1499 50.5,12.5 Z"/></g>
<g><path style="opacity:1" fill="#dad9d9" d="M 50.5,12.5 C 52.0269,12.427 53.0269,13.0937 53.5,14.5C 51.9731,14.573 50.9731,13.9063 50.5,12.5 Z"/></g>
<g><path style="opacity:1" fill="#efefef" d="M 725.5,12.5 C 726.5,12.5 727.5,12.5 728.5,12.5C 728.64,14.1238 727.973,15.2904 726.5,16C 727.244,17.0386 728.244,17.5386 729.5,17.5C 729.5,17.8333 729.5,18.1667 729.5,18.5C 727.784,18.3713 726.117,18.038 724.5,17.5C 725.301,15.9582 725.634,14.2915 725.5,12.5 Z"/></g>
<g><path style="opacity:1" fill="#e5e5e4" d="M 785.5,19.5 C 781.89,20.847 781.557,20.1804 784.5,17.5C 785.117,17.3893 785.617,17.056 786,16.5C 786.493,11.178 783.993,9.17798 778.5,10.5C 781.51,7.72441 784.344,8.05774 787,11.5C 787.891,14.4976 787.391,17.1643 785.5,19.5 Z"/></g>
<g><path style="opacity:1" fill="#c4c2c1" d="M 725.5,12.5 C 725.634,14.2915 725.301,15.9582 724.5,17.5C 719.715,15.2914 714.715,14.4581 709.5,15C 710.603,16.6804 710.27,18.1804 708.5,19.5C 706.164,17.7701 706.164,16.2701 708.5,15C 705.486,14.8724 702.486,14.8724 699.5,15C 707.748,12.2329 716.081,12.3996 724.5,15.5C 724.263,14.209 724.596,13.209 725.5,12.5 Z"/></g>
<g><path style="opacity:1" fill="#f0efef" d="M 749.5,19.5 C 750.815,18.1054 750.481,17.1054 748.5,16.5C 751.677,12.3381 752.677,12.8381 751.5,18C 753.167,18.3333 754.833,18.6667 756.5,19C 754.19,19.4966 751.857,19.6633 749.5,19.5 Z"/></g>
<g><path style="opacity:1" fill="#dcdbda" d="M 50.5,12.5 C 46.4537,12.1499 42.6203,12.8166 39,14.5C 38.3828,15.4491 38.5494,16.2825 39.5,17C 41.3453,18.128 43.3453,18.628 45.5,18.5C 45.2148,16.712 45.5481,15.0453 46.5,13.5C 48.2601,18.4354 50.5934,18.7687 53.5,14.5C 54.1667,14.5 54.8333,14.5 55.5,14.5C 55.5,14.8333 55.5,15.1667 55.5,15.5C 49.2331,20.3629 42.7331,20.6963 36,16.5C 33.784,18.3665 31.284,19.1998 28.5,19C 32.3359,16.9164 36.0026,14.583 39.5,12C 38.062,11.7811 36.7287,11.2811 35.5,10.5C 35.8869,9.28014 36.7202,8.61348 38,8.5C 39.531,9.21729 40.8643,10.2173 42,11.5C 45.1643,9.97318 47.9976,10.3065 50.5,12.5 Z"/></g>
<g><path style="opacity:1" fill="#c4c2c2" d="M 68.5,12.5 C 71.1391,12.5708 73.3058,13.5708 75,15.5C 85.3148,12.5715 95.4814,13.0715 105.5,17C 100.757,16.9277 96.09,16.0944 91.5,14.5C 89.1854,14.7991 89.1854,15.6325 91.5,17C 90.0132,20.1237 88.3466,20.1237 86.5,17C 89.1597,15.0183 88.6597,14.185 85,14.5C 77.8553,16.2707 70.6886,17.9373 63.5,19.5C 59.9053,19.7035 57.2386,18.3701 55.5,15.5C 55.5,15.1667 55.5,14.8333 55.5,14.5C 59.537,10.7961 63.8703,10.1294 68.5,12.5 Z"/></g>
<g><path style="opacity:1" fill="#5e5a58" d="M 68.5,12.5 C 68.3601,14.1238 69.0267,15.2904 70.5,16C 66.6908,17.5882 62.6908,17.9216 58.5,17C 57.6919,16.6924 57.0253,16.1924 56.5,15.5C 60.0403,12.8847 64.0403,11.8847 68.5,12.5 Z"/></g>
<g><path style="opacity:1" fill="#e5e5e4" d="M 776.5,14.5 C 775.566,15.5676 775.232,16.901 775.5,18.5C 774.9,17.0998 773.9,16.0998 772.5,15.5C 773.688,14.6364 774.855,13.6364 776,12.5C 776.464,13.0944 776.631,13.7611 776.5,14.5 Z"/></g>
<g><path style="opacity:1" fill="#615d5b" d="M 776.5,14.5 C 777.209,15.404 778.209,15.7373 779.5,15.5C 779.5,16.5 779.5,17.5 779.5,18.5C 778.167,19.8333 776.833,19.8333 775.5,18.5C 775.232,16.901 775.566,15.5676 776.5,14.5 Z"/></g>
<g><path style="opacity:1" fill="#b1afae" d="M 729.5,18.5 C 729.5,18.1667 729.5,17.8333 729.5,17.5C 733.587,17.52 737.587,17.3533 741.5,17C 737.668,19.5915 733.668,20.0915 729.5,18.5 Z"/></g>
<g><path style="opacity:1" fill="#d6d5d4" d="M 18.5,33.5 C 21.2199,30.0071 22.5532,26.0071 22.5,21.5C 17.7797,21.2254 17.4463,22.0588 21.5,24C 17.0233,24.1645 15.5233,21.9978 17,17.5C 17.4828,18.448 17.6495,19.448 17.5,20.5C 21.6759,21.1693 23.0093,19.6693 21.5,16C 18.6922,15.7623 16.0256,16.0956 13.5,17C 15.8082,15.1335 18.4749,14.1335 21.5,14C 20.4281,12.7163 19.0948,12.3829 17.5,13C 22.5497,7.51982 27.883,7.18648 33.5,12C 31.1222,11.4253 28.6222,10.9253 26,10.5C 24.272,10.4537 22.772,10.9537 21.5,12C 23.0473,13.8492 24.8807,15.3492 27,16.5C 27.4955,18.4727 27.6621,20.4727 27.5,22.5C 31.6652,22.4944 33.4985,24.4944 33,28.5C 30.3676,31.1924 28.0342,30.859 26,27.5C 25.6905,26.2341 25.1905,25.0674 24.5,24C 27.2399,21.0211 27.0733,18.1878 24,15.5C 23.2174,17.4335 23.7174,18.9335 25.5,20C 23.8122,22.8245 22.9789,25.9912 23,29.5C 22.1237,31.6355 20.6237,32.9688 18.5,33.5 Z"/></g>
<g><path style="opacity:1" fill="#545454" d="M 291.5,7.5 C 293.508,8.30065 294.008,9.63398 293,11.5C 295.011,7.99836 296.344,7.99836 297,11.5C 298.666,10.6598 298.833,11.1598 297.5,13C 300.167,14 300.167,15 297.5,16C 298.308,16.3076 298.975,16.8076 299.5,17.5C 297.668,18.2485 296.001,19.2485 294.5,20.5C 293.033,20.277 291.533,19.9437 290,19.5C 287.892,26.0256 287.225,32.6923 288,39.5C 289.467,34.5708 291.467,29.9041 294,25.5C 294.667,28.1667 294.667,30.8333 294,33.5C 292.361,36.7423 291.361,40.0757 291,43.5C 291.605,41.5188 292.605,41.1854 294,42.5C 294.202,40.7444 294.702,39.0777 295.5,37.5C 296.086,37.7093 296.586,38.0426 297,38.5C 297.333,36.9532 296.833,35.6199 295.5,34.5C 296.498,31.9722 297.331,31.9722 298,34.5C 300.023,32.9873 299.856,31.6539 297.5,30.5C 297.833,30.1667 298.167,29.8333 298.5,29.5C 299.825,30.7906 301.158,32.1239 302.5,33.5C 299.147,34.3807 298.647,36.0474 301,38.5C 303.158,34.6081 303.992,34.6081 303.5,38.5C 306.385,39.4877 306.052,40.9877 302.5,43C 304.657,43.0781 306.657,43.2448 308.5,43.5C 306.584,45.3173 304.251,46.484 301.5,47C 303.137,48.951 304.637,48.7843 306,46.5C 306.833,47.3333 307.667,48.1667 308.5,49C 306.233,49.2762 303.9,49.9429 301.5,51C 303,51.8333 304.167,53 305,54.5C 306.667,53.1667 308.333,51.8333 310,50.5C 310.167,51.1667 310.333,51.8333 310.5,52.5C 305.034,61.1325 299.368,69.6325 293.5,78C 294.445,82.289 296.112,86.6224 298.5,91C 298.389,92.7215 297.889,92.8882 297,91.5C 296.764,93.764 296.264,95.9307 295.5,98C 299.286,99.3926 302.952,101.059 306.5,103C 302.478,102.17 298.478,101.004 294.5,99.5C 292.331,107.154 290.498,114.821 289,122.5C 291.833,118.833 294.667,115.167 297.5,111.5C 302.864,109.736 307.698,107.069 312,103.5C 313.278,106.721 314.111,110.054 314.5,113.5C 307.973,113.431 302.306,115.598 297.5,120C 304.087,121.212 310.754,121.879 317.5,122C 320.112,126.163 321.279,130.663 321,135.5C 314.046,130.642 306.546,129.142 298.5,131C 304.512,134.338 310.179,138.172 315.5,142.5C 316.141,147.636 315.308,152.636 313,157.5C 309.703,155.205 306.703,152.538 304,149.5C 305.078,154.083 305.745,158.749 306,163.5C 303.815,164.928 301.815,166.595 300,168.5C 296.289,162.044 292.956,155.377 290,148.5C 288.887,146.671 287.387,145.837 285.5,146C 288.745,154.659 292.412,163.159 296.5,171.5C 293.65,175.413 289.983,178.079 285.5,179.5C 283.317,168.086 279.817,157.086 275,146.5C 273.989,145.663 272.822,145.33 271.5,145.5C 277.314,157.093 280.147,169.426 280,182.5C 278.806,180.377 278.14,178.043 278,175.5C 277.667,178.5 277.333,181.5 277,184.5C 275.333,185.5 273.667,186.5 272,187.5C 270.844,183.877 269.844,180.211 269,176.5C 268.194,179.446 266.861,182.112 265,184.5C 263.209,163.284 262.375,163.284 262.5,184.5C 260.533,184.739 258.699,184.406 257,183.5C 255.956,176.089 254.623,168.756 253,161.5C 253.661,168.801 253.995,176.134 254,183.5C 252.799,185.909 251.133,187.909 249,189.5C 248.667,183.5 248.333,177.5 248,171.5C 246.171,177.798 246.004,184.131 247.5,190.5C 243.429,190.766 239.429,190.433 235.5,189.5C 235.167,188.833 234.833,188.167 234.5,187.5C 236.305,182.959 237.138,178.293 237,173.5C 233.334,178.162 230.167,183.162 227.5,188.5C 225.833,187.5 224.5,186.167 223.5,184.5C 227.862,178.638 232.028,172.638 236,166.5C 236.688,165.668 236.521,165.002 235.5,164.5C 230.113,170.262 225.446,176.595 221.5,183.5C 219.833,183.167 218.833,182.167 218.5,180.5C 219.421,178.033 220.255,175.699 221,173.5C 219.649,175.019 218.149,176.352 216.5,177.5C 215.242,174.278 215.742,171.278 218,168.5C 223.874,162.957 230.041,157.79 236.5,153C 239.87,149.965 242.87,146.632 245.5,143C 243.087,142.516 240.754,142.85 238.5,144C 230.333,150.167 222.167,156.333 214,162.5C 212.519,156.907 213.686,151.74 217.5,147C 225.886,144.76 234.053,141.927 242,138.5C 242.432,137.4 241.932,136.733 240.5,136.5C 233.764,138.473 227.097,140.307 220.5,142C 221.833,140.667 223.167,139.333 224.5,138C 233.202,135.479 241.535,132.146 249.5,128C 247.167,127.333 244.833,127.333 242.5,128C 236.441,129.743 230.441,131.576 224.5,133.5C 224.679,127.31 227.679,123.143 233.5,121C 243.723,120.299 253.89,120.799 264,122.5C 264.833,122.167 265.667,121.833 266.5,121.5C 257.508,117.582 248.175,114.582 238.5,112.5C 242.383,105.152 248.383,102.318 256.5,104C 257.551,102.615 258.884,101.615 260.5,101C 259.5,100 258.5,99 257.5,98C 264.971,97.8826 271.971,96.0492 278.5,92.5C 274.497,90.2179 270.331,88.2179 266,86.5C 258.092,96.2455 247.926,101.912 235.5,103.5C 232.273,102.482 228.94,101.649 225.5,101C 229.896,100.254 234.23,99.2542 238.5,98C 246.352,93.574 254.352,89.4073 262.5,85.5C 257.798,83.2096 252.964,81.2096 248,79.5C 237.058,91.3905 223.558,98.7238 207.5,101.5C 206.5,101.167 205.5,100.833 204.5,100.5C 217.283,91.7739 230.95,84.6073 245.5,79C 240.658,76.5497 235.658,74.383 230.5,72.5C 215.048,86.3945 197.048,94.5611 176.5,97C 190.782,84.0248 207.449,75.5248 226.5,71.5C 221.621,69.2284 216.621,67.2284 211.5,65.5C 199.002,76.9183 184.335,83.085 167.5,84C 179.851,74.9863 193.518,68.653 208.5,65C 203.273,62.8688 197.94,61.0355 192.5,59.5C 185.72,65.0646 178.386,69.898 170.5,74C 165.329,76.4172 159.996,76.9172 154.5,75.5C 164.609,68.1105 175.609,62.2772 187.5,58C 182.947,56.5723 178.447,55.0723 174,53.5C 171.833,57 169,59.8333 165.5,62C 159.242,64.4745 152.909,66.6412 146.5,68.5C 147.689,72.8167 147.689,77.1501 146.5,81.5C 152.908,80.0187 158.741,81.352 164,85.5C 164.63,87.9034 163.797,89.7367 161.5,91C 159.112,92.8605 156.446,94.1939 153.5,95C 157.266,99.4659 158.933,104.633 158.5,110.5C 152.404,110.748 147.237,108.748 143,104.5C 141.852,111.626 138.018,116.126 131.5,118C 129.337,114.871 128.003,111.371 127.5,107.5C 128.345,104.807 128.845,102.141 129,99.5C 120.621,102.969 113.788,101.469 108.5,95C 111.847,90.6597 116.18,87.8264 121.5,86.5C 119.63,82.2903 116.296,80.2903 111.5,80.5C 113.22,80.2537 115.22,80.2537 117.5,80.5C 117.665,77.4816 117.498,74.4816 117,71.5C 114.696,69.9315 112.196,68.7648 109.5,68C 111.424,67.8208 113.091,67.6541 114.5,67.5C 111.979,64.1458 108.979,61.3124 105.5,59C 109.936,60.1371 110.603,58.8038 107.5,55C 109.158,54.2747 109.658,53.108 109,51.5C 107.612,52.5536 106.112,52.7203 104.5,52C 106.929,51.5488 107.096,50.7155 105,49.5C 104.586,49.9574 104.086,50.2907 103.5,50.5C 101.118,48.9293 98.4512,48.096 95.5,48C 94.2941,46.9823 94.6274,46.4823 96.5,46.5C 104.227,50.1926 105.227,49.0259 99.5,43C 98.1011,42.4054 96.7678,42.5721 95.5,43.5C 92.3873,42.2859 89.3873,40.7859 86.5,39C 87.1667,38.6667 87.8333,38.3333 88.5,38C 87.1667,37.6667 85.8333,37.3333 84.5,37C 85.8932,35.8289 86.7265,34.3289 87,32.5C 87.9147,33.3279 88.5814,34.3279 89,35.5C 90,34.8333 91,34.1667 92,33.5C 91.0689,35.0041 90.4023,36.6708 90,38.5C 92.8027,40.67 95.8027,41.3366 99,40.5C 100,41.5 101,42.5 102,43.5C 102.14,40.9568 102.806,38.6234 104,36.5C 104.69,40.6319 105.023,44.6319 105,48.5C 105.853,46.8753 106.853,46.5419 108,47.5C 109.133,45.7888 110.633,45.2888 112.5,46C 111.624,47.5848 110.291,48.5848 108.5,49C 110.605,50.3354 111.271,52.0021 110.5,54C 112.126,53.8047 113.793,53.8047 115.5,54C 115.167,54.3333 114.833,54.6667 114.5,55C 116.645,55.7431 116.811,56.5765 115,57.5C 113.7,56.2927 112.2,55.6261 110.5,55.5C 110.338,57.5273 110.505,59.5273 111,61.5C 113.89,65.2557 117.39,67.9224 121.5,69.5C 121.338,67.4727 121.505,65.4727 122,63.5C 122.333,64.8333 122.667,66.1667 123,67.5C 123.654,66.3044 124.154,66.3044 124.5,67.5C 123.164,69.3746 123.664,70.7079 126,71.5C 126.333,71.1667 126.667,70.8333 127,70.5C 128.667,72.5 130.333,74.5 132,76.5C 131.017,70.3626 131.683,64.3626 134,58.5C 133.845,60.8107 133.845,63.144 134,65.5C 134.508,63.0958 135.675,62.4291 137.5,63.5C 135.806,65.1937 134.14,66.8604 132.5,68.5C 133.025,69.1924 133.692,69.6924 134.5,70C 133.549,70.7175 133.383,71.5509 134,72.5C 136.685,68.8169 140.018,65.8169 144,63.5C 144.915,64.3279 145.581,65.3279 146,66.5C 149.081,63.7069 152.581,61.5403 156.5,60C 161.58,58.1957 166.58,56.1957 171.5,54C 169.224,52.6359 166.724,51.8025 164,51.5C 160.423,53.7036 156.59,55.5369 152.5,57C 149.558,58.1244 146.558,58.4577 143.5,58C 151.248,52.8849 158.915,50.2182 166.5,50C 160.315,44.48 154.815,38.3133 150,31.5C 149.312,30.6683 149.479,30.0016 150.5,29.5C 159.987,33.6537 166.321,40.6537 169.5,50.5C 173.345,52.2963 177.345,53.1297 181.5,53C 174.967,46.1095 169.8,38.2762 166,29.5C 163.016,21.8094 164.516,20.6427 170.5,26C 178.138,34.2743 183.138,43.941 185.5,55C 189.667,56.1667 193.833,57.3333 198,58.5C 198.5,58.1667 199,57.8333 199.5,57.5C 192.545,49.9261 187.378,41.2594 184,31.5C 183.333,29.8333 183.333,28.1667 184,26.5C 194.086,35.3318 200.586,46.3318 203.5,59.5C 208.586,62.2503 213.919,64.0837 219.5,65C 207.368,52.5751 200.868,37.7418 200,20.5C 212.554,33.2761 220.054,48.6094 222.5,66.5C 227.768,68.8662 233.102,70.6995 238.5,72C 230.95,58.6907 224.95,44.6907 220.5,30C 221.167,29.3333 221.833,29.3333 222.5,30C 230.635,37.4303 235.801,46.597 238,57.5C 238.768,62.8455 239.601,68.1789 240.5,73.5C 244.731,75.6313 249.064,77.1313 253.5,78C 248.242,66.557 244.408,54.7237 242,42.5C 247.474,45.8081 251.307,50.4748 253.5,56.5C 258.769,57.188 259.436,59.0213 255.5,62C 255.551,67.0498 255.718,72.2164 256,77.5C 259.06,75.9424 261.226,73.6091 262.5,70.5C 261.948,67.515 260.614,65.015 258.5,63C 259.692,60.9452 259.692,58.9452 258.5,57C 260.385,57.2302 262.385,57.2302 264.5,57C 265.925,58.7141 265.592,60.0475 263.5,61C 264.211,62.2547 265.044,63.4214 266,64.5C 267.362,62.5643 269.195,61.231 271.5,60.5C 270.167,59.1667 268.833,57.8333 267.5,56.5C 268.438,55.4471 269.605,54.7804 271,54.5C 283.231,63.3082 284.398,62.1415 274.5,51C 270.507,50.8297 266.507,50.9963 262.5,51.5C 260.647,48.4904 261.48,46.4904 265,45.5C 267.576,46.2578 269.743,47.5911 271.5,49.5C 272.442,49.3918 273.275,49.0585 274,48.5C 278.22,52.2005 281.554,56.5338 284,61.5C 284.667,63.5 284.667,65.5 284,67.5C 283.282,66.5494 282.449,66.3828 281.5,67C 284.861,70.6333 286.361,69.8 286,64.5C 286.333,65.5 286.667,66.5 287,67.5C 288.224,59.2813 285.558,52.6146 279,47.5C 278.333,48.8333 277.667,48.8333 277,47.5C 275.309,40.7365 273.642,34.0699 272,27.5C 278.748,32.237 283.082,38.5703 285,46.5C 285.717,42.9551 285.55,39.4551 284.5,36C 284.944,34.2382 285.444,34.4049 286,36.5C 286.257,30.1181 287.424,23.9515 289.5,18C 287.5,17 285.5,16 283.5,15C 284.833,14.3333 284.833,13.6667 283.5,13C 285.076,12.5604 286.41,11.727 287.5,10.5C 288.478,10.9767 289.311,11.6433 290,12.5C 290.608,10.8455 291.108,9.17885 291.5,7.5 Z"/></g>
<g><path style="opacity:1" fill="#635f5d" d="M 784.5,17.5 C 781.557,20.1804 781.89,20.847 785.5,19.5C 786.209,25.4081 784.209,30.0747 779.5,33.5C 777.017,31.0632 775.683,28.0632 775.5,24.5C 780.323,24.6728 782.323,22.3394 781.5,17.5C 782.5,17.5 783.5,17.5 784.5,17.5 Z"/></g>
<g><path style="opacity:1" fill="#8d8a88" d="M 772.5,15.5 C 773.9,16.0998 774.9,17.0998 775.5,18.5C 776.833,19.8333 778.167,19.8333 779.5,18.5C 780.043,18.56 780.376,18.8933 780.5,19.5C 778.922,20.2978 777.256,20.7978 775.5,21C 779.98,21.2926 780.313,22.126 776.5,23.5C 775.914,23.2907 775.414,22.9574 775,22.5C 774.506,24.1341 774.34,25.8008 774.5,27.5C 773.596,26.791 773.263,25.791 773.5,24.5C 770.602,22.2275 770.936,20.7275 774.5,20C 773.376,19.7508 772.376,19.2508 771.5,18.5C 772.127,17.5832 772.461,16.5832 772.5,15.5 Z"/></g>
<g><path style="opacity:1" fill="#d6d5d5" d="M 776.5,14.5 C 779.649,14.4152 782.316,15.4152 784.5,17.5C 783.5,17.5 782.5,17.5 781.5,17.5C 782.323,22.3394 780.323,24.6728 775.5,24.5C 775.683,28.0632 777.017,31.0632 779.5,33.5C 776.438,32.7322 774.772,30.7322 774.5,27.5C 774.34,25.8008 774.506,24.1341 775,22.5C 775.414,22.9574 775.914,23.2907 776.5,23.5C 780.313,22.126 779.98,21.2926 775.5,21C 777.256,20.7978 778.922,20.2978 780.5,19.5C 780.376,18.8933 780.043,18.56 779.5,18.5C 779.5,17.5 779.5,16.5 779.5,15.5C 778.209,15.7373 777.209,15.404 776.5,14.5 Z"/></g>
<g><path style="opacity:1" fill="#5f5b59" d="M 27.5,24.5 C 30.5,24.1667 31.8333,25.5 31.5,28.5C 28.5,28.8333 27.1667,27.5 27.5,24.5 Z"/></g>
<g><path style="opacity:1" fill="#635f5d" d="M 766.5,24.5 C 767.833,24.5 769.167,24.5 770.5,24.5C 770.833,27.5 769.5,28.8333 766.5,28.5C 766.5,27.1667 766.5,25.8333 766.5,24.5 Z"/></g>
<g><path style="opacity:1" fill="#d6d5d4" d="M 18.5,33.5 C 21.3324,38.4247 22.1657,43.758 21,49.5C 20.6232,50.9423 19.7899,51.9423 18.5,52.5C 17.8505,54.4352 17.5172,56.4352 17.5,58.5C 16.8333,57.8333 16.1667,57.1667 15.5,56.5C 12.9552,51.1015 12.1218,45.4348 13,39.5C 14.1667,37.6667 15.3333,35.8333 16.5,34C 11.3722,30.0927 9.70553,25.0927 11.5,19C 8.20595,13.753 9.53928,10.253 15.5,8.5C 16.737,8.55647 17.737,9.05647 18.5,10C 10.5293,11.2147 9.52926,14.548 15.5,20C 14.5509,20.6172 13.7175,20.4506 13,19.5C 11.3061,25.6143 13.1395,30.281 18.5,33.5 Z"/></g>
<g><path style="opacity:1" fill="#eaeae9" d="M 9.5,33.5 C 14.5018,33.5218 14.8352,34.8552 10.5,37.5C 9.57131,36.3112 9.23798,34.9778 9.5,33.5 Z"/></g>
<g><path style="opacity:1" fill="#dedddc" d="M 783.5,32.5 C 788.475,32.1129 789.475,33.7796 786.5,37.5C 784.949,36.1996 783.949,34.5329 783.5,32.5 Z"/></g>
<g><path style="opacity:1" fill="#65615f" d="M 18.5,52.5 C 17.1765,53.8499 16.1765,53.6833 15.5,52C 13.87,49.5724 14.2033,47.739 16.5,46.5C 19.0764,46.2782 19.9098,44.9449 19,42.5C 17.9505,41.4829 16.7839,41.3162 15.5,42C 16.5981,42.7697 16.5981,43.603 15.5,44.5C 14.3654,43.3237 14.1988,41.3237 15,38.5C 16.8303,34.8564 18.4969,35.1898 20,39.5C 20.7294,43.9969 20.2294,48.3302 18.5,52.5 Z"/></g>
<g><path style="opacity:1" fill="#ecebeb" d="M 16.5,46.5 C 16.6716,45.5084 16.3382,44.8417 15.5,44.5C 16.5981,43.603 16.5981,42.7697 15.5,42C 16.7839,41.3162 17.9505,41.4829 19,42.5C 19.9098,44.9449 19.0764,46.2782 16.5,46.5 Z"/></g>
<g><path style="opacity:1" fill="#c9c8c7" d="M 785.5,19.5 C 786.947,20.1342 787.613,21.3009 787.5,23C 786.557,26.379 785.224,29.5457 783.5,32.5C 780.948,34.1631 781.114,35.8298 784,37.5C 784.869,39.5806 785.369,41.7473 785.5,44C 784.671,49.8264 782.838,55.3264 780,60.5C 779.503,62.8098 779.337,65.1432 779.5,67.5C 779.5,68.1667 779.5,68.8333 779.5,69.5C 780.987,73.1454 782.487,76.812 784,80.5C 784.495,82.4727 784.662,84.4727 784.5,86.5C 784.028,84.4687 783.028,82.8021 781.5,81.5C 781.804,80.8501 782.137,80.1835 782.5,79.5C 776.927,72.1822 776.26,64.5155 780.5,56.5C 778.123,52.5855 776.457,48.4188 775.5,44C 776.137,40.2277 777.47,36.7277 779.5,33.5C 784.209,30.0747 786.209,25.4081 785.5,19.5 Z"/></g>
<g><path style="opacity:1" fill="#635f5d" d="M 778.5,44.5 C 779.287,46.1042 780.62,46.7709 782.5,46.5C 783.262,49.1517 782.762,51.8183 781,54.5C 780,52.5 779,50.5 778,48.5C 777.235,46.9343 777.402,45.6009 778.5,44.5 Z"/></g>
<g><path style="opacity:1" fill="#f3f3f3" d="M 781.5,41.5 C 781.366,43.2915 781.699,44.9582 782.5,46.5C 780.62,46.7709 779.287,46.1042 778.5,44.5C 778.833,43.8333 779.167,43.1667 779.5,42.5C 779.842,41.6618 780.508,41.3284 781.5,41.5 Z"/></g>
<g><path style="opacity:1" fill="#605c5b" d="M 781.5,41.5 C 780.508,41.3284 779.842,41.6618 779.5,42.5C 777.189,41.039 777.189,39.2056 779.5,37C 781.409,36.5521 782.576,37.3855 783,39.5C 783.667,41.1667 783.667,42.8333 783,44.5C 782.768,43.2625 782.268,42.2625 781.5,41.5 Z"/></g>
<g><path style="opacity:1" fill="#bcbab9" d="M 15.5,56.5 C 13.9084,59.9664 13.2417,63.6331 13.5,67.5C 12.3659,65.0336 12.1993,62.367 13,59.5C 13.3768,58.0577 14.2101,57.0577 15.5,56.5 Z"/></g>
<g><path style="opacity:1" fill="#5f5b5a" d="M 15.5,56.5 C 16.1667,57.1667 16.8333,57.8333 17.5,58.5C 17.9629,61.4824 18.2962,64.4824 18.5,67.5C 16.8333,67.5 15.1667,67.5 13.5,67.5C 13.2417,63.6331 13.9084,59.9664 15.5,56.5 Z"/></g>
<g><path style="opacity:1" fill="#d4d3d2" d="M 17.5,58.5 C 20.2252,64.1107 20.0586,69.7774 17,75.5C 16.8047,73.7928 16.8047,72.1261 17,70.5C 15.9887,71.3366 14.8221,71.67 13.5,71.5C 13.5,70.1667 13.5,68.8333 13.5,67.5C 15.1667,67.5 16.8333,67.5 18.5,67.5C 18.2962,64.4824 17.9629,61.4824 17.5,58.5 Z"/></g>
<g><path style="opacity:1" fill="#aba9a8" d="M 784.5,67.5 C 784.319,64.447 784.152,61.447 784,58.5C 785.663,61.5603 785.83,64.5603 784.5,67.5 Z"/></g>
<g><path style="opacity:1" fill="#e8e7e7" d="M 779.5,67.5 C 781.167,67.5 782.833,67.5 784.5,67.5C 784.215,71.8111 782.549,72.4778 779.5,69.5C 779.5,68.8333 779.5,68.1667 779.5,67.5 Z"/></g>
<g><path style="opacity:1" fill="#c8c6c6" d="M 15.5,90.5 C 13.0321,86.3847 12.8654,82.0514 15,77.5C 15.1118,80.4471 16.6118,81.7804 19.5,81.5C 18.4098,88.1104 16.9098,88.1104 15,81.5C 14.6987,84.5071 14.8654,87.5071 15.5,90.5 Z"/></g>
<g><path style="opacity:1" fill="#8f8c8a" d="M 781.5,81.5 C 783.028,82.8021 784.028,84.4687 784.5,86.5C 783.772,88.5115 782.938,90.5115 782,92.5C 782.492,89.681 782.326,87.0144 781.5,84.5C 781.5,83.5 781.5,82.5 781.5,81.5 Z"/></g>
<g><path style="opacity:1" fill="#f4f4f4" d="M 781.5,81.5 C 781.5,82.5 781.5,83.5 781.5,84.5C 780.778,84.9175 780.278,85.5842 780,86.5C 778.731,85.0953 778.231,83.4286 778.5,81.5C 779.5,81.5 780.5,81.5 781.5,81.5 Z"/></g>
<g><path style="opacity:1" fill="#545454" d="M 669.5,89.5 C 670.598,90.6009 670.765,91.9343 670,93.5C 667.855,96.6206 666.521,99.954 666,103.5C 669.419,101.935 671.419,99.2682 672,95.5C 679.759,104.945 677.593,109.778 665.5,110C 668.07,112.067 670.07,114.567 671.5,117.5C 668.948,122.438 665.781,122.772 662,118.5C 661.489,116.122 660.822,113.788 660,111.5C 658.66,118.595 654.993,120.595 649,117.5C 648.517,111.638 651.35,108.471 657.5,108C 653.363,107.349 649.863,105.515 647,102.5C 645.865,99.0989 647.032,97.0989 650.5,96.5C 654.971,96.8011 657.804,99.1345 659,103.5C 658.211,100.143 658.544,96.8094 660,93.5C 663.044,89.6641 665.711,89.9975 668,94.5C 668.608,92.8455 669.108,91.1789 669.5,89.5 Z"/></g>
<g><path style="opacity:1" fill="#a9a7a6" d="M 15.5,90.5 C 17.0986,91.7985 17.5986,93.4652 17,95.5C 15.9914,93.9751 15.4914,92.3084 15.5,90.5 Z"/></g>
<g><path style="opacity:1" fill="#545454" d="M 185.5,144.5 C 183.299,145.566 180.965,146.233 178.5,146.5C 178.334,142.486 178.501,138.486 179,134.5C 181.38,129.573 183.88,124.739 186.5,120C 186.333,119.5 186.167,119 186,118.5C 183.333,120.5 181,122.833 179,125.5C 178.383,124.551 178.549,123.718 179.5,123C 178.167,122.667 176.833,122.333 175.5,122C 181.555,120.278 186.888,117.278 191.5,113C 188.086,112.703 184.753,112.036 181.5,111C 177.294,108.398 172.961,106.064 168.5,104C 179.891,96.0515 190.557,97.0515 200.5,107C 203.953,107.25 207.286,106.917 210.5,106C 206.921,107.706 203.421,109.539 200,111.5C 196.846,119.783 193.846,128.117 191,136.5C 189.727,139.597 187.893,142.264 185.5,144.5 Z"/></g>
<g><path style="opacity:1" fill="#9d9a99" d="M 15.5,109.5 C 15.5861,107.323 16.2528,105.323 17.5,103.5C 17.0233,102.522 16.3567,101.689 15.5,101C 17.4731,100.462 18.4731,101.296 18.5,103.5C 17.999,105.836 16.999,107.836 15.5,109.5 Z"/></g>
<g><path style="opacity:1" fill="#ececeb" d="M 781.5,115.5 C 781.5,116.5 781.5,117.5 781.5,118.5C 776.951,118.068 776.451,116.401 780,113.5C 780.278,114.416 780.778,115.082 781.5,115.5 Z"/></g>
<g><path style="opacity:1" fill="#cecdcc" d="M 15.5,109.5 C 14.8654,112.493 14.6987,115.493 15,118.5C 16.9098,111.89 18.4098,111.89 19.5,118.5C 17.3652,118.147 16.0319,118.98 15.5,121C 19.169,126.677 20.3357,132.844 19,139.5C 18.7216,140.416 18.2216,141.082 17.5,141.5C 17.9629,138.518 18.2962,135.518 18.5,132.5C 16.8333,132.5 15.1667,132.5 13.5,132.5C 13.5,131.167 13.5,129.833 13.5,128.5C 15.1092,128.906 16.4425,128.906 17.5,128.5C 13.2943,122.331 12.6277,115.998 15.5,109.5 Z"/></g>
<g><path style="opacity:1" fill="#e6e6e5" d="M 784.5,132.5 C 782.833,132.5 781.167,132.5 779.5,132.5C 779.5,131.833 779.5,131.167 779.5,130.5C 782.549,127.522 784.215,128.189 784.5,132.5 Z"/></g>
<g><path style="opacity:1" fill="#5f5b59" d="M 13.5,132.5 C 15.1667,132.5 16.8333,132.5 18.5,132.5C 18.2962,135.518 17.9629,138.518 17.5,141.5C 15.7,142.605 14.5334,141.939 14,139.5C 13.5034,137.19 13.3367,134.857 13.5,132.5 Z"/></g>
<g><path style="opacity:1" fill="#605c5a" d="M 779.5,132.5 C 781.167,132.5 782.833,132.5 784.5,132.5C 784.492,135.545 784.159,138.545 783.5,141.5C 781.7,142.605 780.533,141.939 780,139.5C 779.503,137.19 779.337,134.857 779.5,132.5 Z"/></g>
<g><path style="opacity:1" fill="#afadac" d="M 784.5,132.5 C 785.152,133.449 785.486,134.615 785.5,136C 785.607,138.221 784.94,140.054 783.5,141.5C 784.159,138.545 784.492,135.545 784.5,132.5 Z"/></g>
<g><path style="opacity:1" fill="#545454" d="M 142.5,137.5 C 149.565,136.991 156.399,137.991 163,140.5C 165.151,140.357 166.818,139.357 168,137.5C 170.587,141.761 173.587,145.761 177,149.5C 180.194,156.456 180.194,163.456 177,170.5C 173.419,165.672 170.085,160.672 167,155.5C 165.337,150.88 165.003,146.213 166,141.5C 162.814,148.048 159.814,154.715 157,161.5C 153.419,165.515 149.252,168.348 144.5,170C 145.696,169.346 145.696,168.846 144.5,168.5C 141.383,170.248 138.383,172.081 135.5,174C 137.85,177.429 138.016,180.929 136,184.5C 136.351,182.114 136.185,179.781 135.5,177.5C 134.155,176.653 133.155,175.487 132.5,174C 127.079,175.045 125.579,172.879 128,167.5C 128.29,169.044 128.956,170.377 130,171.5C 132.719,168.107 135.053,164.44 137,160.5C 140.704,156.405 144.871,152.905 149.5,150C 143.177,149.335 137.177,147.668 131.5,145C 134.886,141.982 138.553,139.482 142.5,137.5 Z"/></g>
<g><path style="opacity:1" fill="#555454" d="M 185.5,144.5 C 187.785,143.454 190.118,143.454 192.5,144.5C 192.78,140.775 194.78,139.608 198.5,141C 199.126,141.75 199.626,142.584 200,143.5C 205.345,142.056 206.845,144.056 204.5,149.5C 207.582,150.199 209.582,152.033 210.5,155C 208.31,157.597 206.976,160.597 206.5,164C 204.559,164.743 202.726,164.576 201,163.5C 199.281,169.098 196.615,169.765 193,165.5C 186.876,166.699 185.376,164.533 188.5,159C 182.443,158.076 181.11,155.243 184.5,150.5C 185.466,148.604 185.799,146.604 185.5,144.5 Z"/></g>
<g><path style="opacity:1" fill="#cac9c8" d="M 13.5,132.5 C 13.3367,134.857 13.5034,137.19 14,139.5C 14.5334,141.939 15.7,142.605 17.5,141.5C 17.5838,144.327 18.2504,146.994 19.5,149.5C 18.2876,148.77 17.2876,147.77 16.5,146.5C 15.0562,148.608 14.3896,150.941 14.5,153.5C 18.6759,152.831 20.0093,154.331 18.5,158C 17.552,158.483 16.552,158.649 15.5,158.5C 14.2148,155.471 14.2148,157.138 15.5,163.5C 13.0728,161.492 12.0728,158.826 12.5,155.5C 12.4812,151.556 13.4812,147.889 15.5,144.5C 12.1612,140.588 11.4946,136.588 13.5,132.5 Z"/></g>
<g><path style="opacity:1" fill="#635f5d" d="M 780.5,145.5 C 782.663,147.954 783.33,150.62 782.5,153.5C 780.61,153.297 779.11,153.963 778,155.5C 777.913,151.985 778.746,148.652 780.5,145.5 Z"/></g>
<g><path style="opacity:1" fill="#666260" d="M 19.5,149.5 C 20.2436,153.119 20.577,156.785 20.5,160.5C 19.5714,161.936 18.4048,163.269 17,164.5C 16.6174,163.944 16.1174,163.611 15.5,163.5C 14.2148,157.138 14.2148,155.471 15.5,158.5C 16.552,158.649 17.552,158.483 18.5,158C 20.0093,154.331 18.6759,152.831 14.5,153.5C 14.3896,150.941 15.0562,148.608 16.5,146.5C 17.2876,147.77 18.2876,148.77 19.5,149.5 Z"/></g>
<g><path style="opacity:1" fill="#65615f" d="M 783.5,161.5 C 781.124,164.401 779.291,164.068 778,160.5C 777.383,157.824 778.216,157.157 780.5,158.5C 781.298,158.043 781.631,157.376 781.5,156.5C 782.117,156.389 782.617,156.056 783,155.5C 783.495,157.473 783.662,159.473 783.5,161.5 Z"/></g>
<g><path style="opacity:1" fill="#e6e5e4" d="M 19.5,149.5 C 20.1174,149.611 20.6174,149.944 21,150.5C 21.8075,154.027 21.6408,157.36 20.5,160.5C 20.577,156.785 20.2436,153.119 19.5,149.5 Z"/></g>
<g><path style="opacity:1" fill="#bcbaba" d="M 779.5,130.5 C 779.5,131.167 779.5,131.833 779.5,132.5C 779.337,134.857 779.503,137.19 780,139.5C 780.533,141.939 781.7,142.605 783.5,141.5C 783.322,142.695 782.989,143.862 782.5,145C 784.123,148.49 785.123,152.157 785.5,156C 785.607,158.221 784.94,160.054 783.5,161.5C 783.662,159.473 783.495,157.473 783,155.5C 782.617,156.056 782.117,156.389 781.5,156.5C 781.557,155.391 781.89,154.391 782.5,153.5C 783.33,150.62 782.663,147.954 780.5,145.5C 779.203,141.77 778.203,137.936 777.5,134C 778.175,129.148 779.841,124.648 782.5,120.5C 782.137,119.817 781.804,119.15 781.5,118.5C 781.5,117.5 781.5,116.5 781.5,115.5C 782.139,114.903 782.472,114.07 782.5,113C 781.497,110.532 780.997,108.032 781,105.5C 782.968,108.737 784.135,112.237 784.5,116C 783.536,121.09 781.87,125.923 779.5,130.5 Z"/></g>
<g><path style="opacity:1" fill="#ececec" d="M 10.5,162.5 C 14.737,165.057 14.4036,166.39 9.5,166.5C 9.43255,165.041 9.76589,163.708 10.5,162.5 Z"/></g>
<g><path style="opacity:1" fill="#676361" d="M 18.5,166.5 C 21.529,169.901 22.8624,173.901 22.5,178.5C 21.1667,178.5 19.8333,178.5 18.5,178.5C 19.0577,177.21 20.0577,176.377 21.5,176C 19.6332,175.289 18.1332,175.789 17,177.5C 16.6667,179.5 16.3333,181.5 16,183.5C 15.3292,182.748 14.4959,182.414 13.5,182.5C 13.9528,181.542 14.6195,180.708 15.5,180C 14.5509,179.383 13.7175,179.549 13,180.5C 12.3623,179.391 11.8623,178.225 11.5,177C 12.8974,172.789 15.2307,169.289 18.5,166.5 Z"/></g>
<g><path style="opacity:1" fill="#635f5d" d="M 779.5,166.5 C 784.209,169.925 786.209,174.592 785.5,180.5C 782.161,179.51 781.828,180.177 784.5,182.5C 783.5,182.5 782.5,182.5 781.5,182.5C 782.016,177.814 780.016,175.481 775.5,175.5C 775.683,171.937 777.017,168.937 779.5,166.5 Z"/></g>
<g><path style="opacity:1" fill="#d3d2d2" d="M 780.5,145.5 C 778.746,148.652 777.913,151.985 778,155.5C 779.11,153.963 780.61,153.297 782.5,153.5C 781.89,154.391 781.557,155.391 781.5,156.5C 781.631,157.376 781.298,158.043 780.5,158.5C 778.216,157.157 777.383,157.824 778,160.5C 779.291,164.068 781.124,164.401 783.5,161.5C 783.249,163.17 782.582,164.67 781.5,166C 782.448,166.483 783.448,166.649 784.5,166.5C 785.334,161.578 786.668,161.411 788.5,166C 786.941,166.98 785.274,167.813 783.5,168.5C 785.363,170.893 786.696,173.56 787.5,176.5C 787.332,178.171 786.665,179.504 785.5,180.5C 786.209,174.592 784.209,169.925 779.5,166.5C 773.896,159.111 774.229,152.111 780.5,145.5 Z"/></g>
<g><path style="opacity:1" fill="#dad9d8" d="M 20.5,160.5 C 20.2964,162.685 19.6298,164.685 18.5,166.5C 15.2307,169.289 12.8974,172.789 11.5,177C 11.8623,178.225 12.3623,179.391 13,180.5C 13.7175,179.549 14.5509,179.383 15.5,180C 14.6195,180.708 13.9528,181.542 13.5,182.5C 11.5589,184.011 11.0589,186.011 12,188.5C 14.0693,189.264 16.236,189.764 18.5,190C 13.499,192.815 10.499,191.315 9.5,185.5C 9.93905,183.896 10.6057,182.396 11.5,181C 9.70553,174.907 11.3722,169.907 16.5,166C 15.7476,165.329 15.4142,164.496 15.5,163.5C 16.1174,163.611 16.6174,163.944 17,164.5C 18.4048,163.269 19.5714,161.936 20.5,160.5 Z"/></g>
<g><path style="opacity:1" fill="#e6e5e5" d="M 743.5,184.5 C 747.039,180.835 751.372,179.668 756.5,181C 754.833,181.333 753.167,181.667 751.5,182C 752.747,183.494 752.747,184.994 751.5,186.5C 749.568,185.855 748.401,184.521 748,182.5C 746.67,183.582 745.17,184.249 743.5,184.5 Z"/></g>
<g><path style="opacity:1" fill="#666361" d="M 52.5,183.5 C 52.8333,184.167 53.1667,184.833 53.5,185.5C 48.6971,188.123 43.8638,188.123 39,185.5C 38.3333,184.833 38.3333,184.167 39,183.5C 41.0065,182.331 43.1732,181.665 45.5,181.5C 45.496,187.825 46.8293,188.158 49.5,182.5C 50.4168,183.127 51.4168,183.461 52.5,183.5 Z"/></g>
<g><path style="opacity:1" fill="#eeeeed" d="M 89.5,184.5 C 89.1667,184.5 88.8333,184.5 88.5,184.5C 87.596,183.791 87.2627,182.791 87.5,181.5C 88.8221,181.33 89.9887,181.663 91,182.5C 91.5281,183.816 91.0281,184.483 89.5,184.5 Z"/></g>
<g><path style="opacity:1" fill="#e7e7e7" d="M 709.5,184.5 C 709.167,184.5 708.833,184.5 708.5,184.5C 706.193,183.595 706.193,182.262 708.5,180.5C 710.189,181.775 710.522,183.108 709.5,184.5 Z"/></g>
<g><path style="opacity:1" fill="#dcdbdb" d="M 52.5,183.5 C 51.4168,183.461 50.4168,183.127 49.5,182.5C 46.8293,188.158 45.496,187.825 45.5,181.5C 43.1732,181.665 41.0065,182.331 39,183.5C 38.3333,184.167 38.3333,184.833 39,185.5C 43.8638,188.123 48.6971,188.123 53.5,185.5C 50.4706,189.211 46.6373,190.211 42,188.5C 40.8643,189.783 39.531,190.783 38,191.5C 36.7202,191.387 35.8869,190.72 35.5,189.5C 40.5708,188.526 40.5708,187.193 35.5,185.5C 33.2314,184.024 30.8981,182.524 28.5,181C 31.284,180.8 33.784,181.634 36,183.5C 40.0824,180.709 44.5824,179.876 49.5,181C 50.9423,181.377 51.9423,182.21 52.5,183.5 Z"/></g>
<g><path style="opacity:1" fill="#d5d4d3" d="M 762.5,185.5 C 758.692,186.439 758.692,187.772 762.5,189.5C 761.833,190.833 760.833,191.833 759.5,192.5C 758.167,191.167 756.833,189.833 755.5,188.5C 751.428,190.099 747.761,189.432 744.5,186.5C 744.667,186.167 744.833,185.833 745,185.5C 750.046,188.349 754.879,188.015 759.5,184.5C 758.496,182.323 759.162,181.989 761.5,183.5C 763.972,181.749 766.639,180.915 769.5,181C 766.761,182.026 764.428,183.526 762.5,185.5 Z"/></g>
<g><path style="opacity:1" fill="#918f8d" d="M 691.5,182.5 C 697.324,182.347 697.657,183.013 692.5,184.5C 693.061,187.187 692.394,187.187 690.5,184.5C 690.863,183.817 691.196,183.15 691.5,182.5 Z"/></g>
<g><path style="opacity:1" fill="#64605f" d="M 784.5,182.5 C 787.134,184.54 787.134,186.707 784.5,189C 782.527,189.495 780.527,189.662 778.5,189.5C 778.953,188.542 779.619,187.708 780.5,187C 778.905,187.617 777.572,187.284 776.5,186C 779.666,185.678 782.333,184.511 784.5,182.5 Z"/></g>
<g><path style="opacity:1" fill="#c4c2c1" d="M 708.5,184.5 C 708.833,184.5 709.167,184.5 709.5,184.5C 710.449,185.152 711.615,185.486 713,185.5C 718.662,184.613 724.162,183.113 729.5,181C 733.858,179.925 737.858,180.592 741.5,183C 741.167,183.167 740.833,183.333 740.5,183.5C 735.703,182.014 731.037,182.181 726.5,184C 727.973,184.71 728.64,185.876 728.5,187.5C 726.315,187.112 724.482,186.112 723,184.5C 715.209,188.206 707.376,188.373 699.5,185C 702.665,185.367 705.665,185.201 708.5,184.5 Z"/></g>
<g><path style="opacity:1" fill="#d1d0cf" d="M 779.5,166.5 C 777.017,168.937 775.683,171.937 775.5,175.5C 780.016,175.481 782.016,177.814 781.5,182.5C 782.5,182.5 783.5,182.5 784.5,182.5C 782.333,184.511 779.666,185.678 776.5,186C 777.572,187.284 778.905,187.617 780.5,187C 779.619,187.708 778.953,188.542 778.5,189.5C 773.743,192.32 769.076,192.153 764.5,189C 763.177,188.184 762.511,187.017 762.5,185.5C 766.073,189.002 770.406,190.336 775.5,189.5C 775.649,188.448 775.483,187.448 775,186.5C 773.271,186.026 772.105,185.026 771.5,183.5C 770.539,181.735 770.205,179.735 770.5,177.5C 764.512,177.336 763.179,174.836 766.5,170C 767.5,169.333 768.5,169.333 769.5,170C 770.615,172.131 771.948,173.965 773.5,175.5C 772.859,176.482 772.193,177.482 771.5,178.5C 773.731,178.887 776.064,179.053 778.5,179C 777.584,179.278 776.918,179.778 776.5,180.5C 775.566,181.568 775.232,182.901 775.5,184.5C 776.833,184.5 778.167,184.5 779.5,184.5C 779.5,183.5 779.5,182.5 779.5,181.5C 780.522,180.108 780.189,178.775 778.5,177.5C 777.28,176.289 776.113,176.289 775,177.5C 774.506,175.866 774.34,174.199 774.5,172.5C 774.772,169.268 776.438,167.268 779.5,166.5 Z"/></g>
<g><path style="opacity:1" fill="#5f5b59" d="M 776.5,180.5 C 777.791,180.263 778.791,180.596 779.5,181.5C 779.5,182.5 779.5,183.5 779.5,184.5C 778.167,184.5 776.833,184.5 775.5,184.5C 775.232,182.901 775.566,181.568 776.5,180.5 Z"/></g>
<g><path style="opacity:1" fill="#6c6967" d="M 771.5,183.5 C 771.281,182.325 771.614,181.325 772.5,180.5C 775.259,183.728 774.926,184.728 771.5,183.5 Z"/></g>
<g><path style="opacity:1" fill="#858281" d="M 774.5,172.5 C 774.34,174.199 774.506,175.866 775,177.5C 776.113,176.289 777.28,176.289 778.5,177.5C 780.189,178.775 780.522,180.108 779.5,181.5C 778.791,180.596 777.791,180.263 776.5,180.5C 776.918,179.778 777.584,179.278 778.5,179C 776.064,179.053 773.731,178.887 771.5,178.5C 772.193,177.482 772.859,176.482 773.5,175.5C 773.263,174.209 773.596,173.209 774.5,172.5 Z"/></g>
<g><path style="opacity:1" fill="#635f5d" d="M 766.5,171.5 C 769.5,171.167 770.833,172.5 770.5,175.5C 769.167,175.5 767.833,175.5 766.5,175.5C 766.5,174.167 766.5,172.833 766.5,171.5 Z"/></g>
<g><path style="opacity:1" fill="#c3c2c1" d="M 88.5,184.5 C 88.8333,184.5 89.1667,184.5 89.5,184.5C 89.9169,185.124 90.5836,185.457 91.5,185.5C 96.09,183.906 100.757,183.072 105.5,183C 100.819,184.344 96.1527,185.677 91.5,187C 85.7911,187.7 80.2911,186.867 75,184.5C 73.3058,186.429 71.1391,187.429 68.5,187.5C 68.3601,185.876 69.0267,184.71 70.5,184C 66.2991,182.182 61.9658,182.015 57.5,183.5C 56.1667,184.167 56.1667,184.833 57.5,185.5C 59.6666,186.792 61.9999,187.625 64.5,188C 63.6667,188.167 62.8333,188.333 62,188.5C 59.1042,187.633 56.2709,186.633 53.5,185.5C 53.1667,184.833 52.8333,184.167 52.5,183.5C 53.4959,183.414 54.3292,183.748 55,184.5C 57.0957,181.703 59.929,180.37 63.5,180.5C 69.6228,181.485 75.6228,182.985 81.5,185C 84.0385,185.796 86.3718,185.629 88.5,184.5 Z"/></g>
<g><path style="opacity:1" fill="#d4d3d3" d="M 18.5,166.5 C 20.6237,167.031 22.1237,168.365 23,170.5C 22.9789,174.009 23.8122,177.175 25.5,180C 23.7174,181.067 23.2174,182.567 24,184.5C 27.0733,181.812 27.2399,178.979 24.5,176C 25.2527,172.914 27.086,170.748 30,169.5C 33.2814,170.515 34.1147,172.515 32.5,175.5C 31.1502,176.95 29.4835,177.617 27.5,177.5C 28.5822,182.106 26.9155,185.106 22.5,186.5C 21.8728,187.417 21.5394,188.417 21.5,189.5C 19.8042,189.315 18.4709,188.481 17.5,187C 19.0948,187.617 20.4281,187.284 21.5,186C 18.2084,185.996 15.5418,184.83 13.5,182.5C 14.4959,182.414 15.3292,182.748 16,183.5C 16.3333,181.5 16.6667,179.5 17,177.5C 18.1332,175.789 19.6332,175.289 21.5,176C 20.0577,176.377 19.0577,177.21 18.5,178.5C 19.8333,178.5 21.1667,178.5 22.5,178.5C 22.8624,173.901 21.529,169.901 18.5,166.5 Z"/></g>
<g><path style="opacity:1" fill="#6a6665" d="M 18.5,178.5 C 19.981,179.421 21.3144,180.588 22.5,182C 21.615,184.157 19.9484,184.99 17.5,184.5C 17.2053,182.265 17.5386,180.265 18.5,178.5 Z"/></g>
<g><path style="opacity:1" fill="#64605e" d="M 28.5,171.5 C 29.5,171.5 30.5,171.5 31.5,171.5C 31.5,172.833 31.5,174.167 31.5,175.5C 30.1667,175.5 28.8333,175.5 27.5,175.5C 27.4326,174.041 27.7659,172.708 28.5,171.5 Z"/></g>
<g><path style="opacity:1" fill="#bdbbba" d="M 743.5,184.5 C 739.616,188.226 734.949,189.393 729.5,188C 734.49,187.964 739.156,186.798 743.5,184.5 Z"/></g>
<g><path style="opacity:1" fill="#e1e1e0" d="M 785.5,180.5 C 788.968,185.732 787.802,189.399 782,191.5C 780.301,191.613 779.134,190.947 778.5,189.5C 780.527,189.662 782.527,189.495 784.5,189C 787.134,186.707 787.134,184.54 784.5,182.5C 781.828,180.177 782.161,179.51 785.5,180.5 Z"/></g>
<g><path style="opacity:1" fill="#cdcbcb" d="M 35.5,185.5 C 32.929,190.093 28.929,191.927 23.5,191C 22.5842,190.722 21.9175,190.222 21.5,189.5C 26.8272,190.259 31.4939,188.926 35.5,185.5 Z"/></g>
</svg>
